<?xml version="1.0" standalone="no"?><!DOCTYPE svg PUBLIC "-//W3C//DTD SVG 1.1//EN" "http://www.w3.org/Graphics/SVG/1.1/DTD/svg11.dtd"><svg class="icon" width="200px" height="200.00px" viewBox="0 0 1024 1024" version="1.1" xmlns="http://www.w3.org/2000/svg"><path fill="#333333" d="M167.855986 584.303746l344.224856-344.224856 344.221786 344.224856c12.212136 12.21009 32.009018 12.21009 44.218084 0 12.211113-12.212136 12.211113-32.007995 0-44.215014L534.955828 174.512592c-6.304589-6.299473-14.614859-9.212826-22.873963-9.009188-8.259104-0.204661-16.569374 2.709715-22.873963 9.009188l-365.565906 365.577163c-12.212136 12.20702-12.212136 32.001855 0 44.215014C135.854131 596.513836 155.648966 596.513836 167.855986 584.303746zM534.955828 439.556061c-6.304589-6.299473-14.614859-9.212826-22.873963-9.009188-8.259104-0.204661-16.569374 2.709715-22.873963 9.009188l-365.565906 365.575116c-12.212136 12.209066-12.212136 32.005948 0 44.218084 12.212136 12.209066 32.007995 12.209066 44.215014 0l344.224856-344.226902 344.221786 344.226902c12.212136 12.209066 32.009018 12.209066 44.218084 0 12.211113-12.212136 12.211113-32.009018 0-44.218084L534.955828 439.556061z" /></svg>